<svg xmlns="http://www.w3.org/2000/svg" xmlns:xlink="http://www.w3.org/1999/xlink" width="325.178" height="65" viewBox="0 0 325.178 65">
  <defs>
    <linearGradient id="linear-gradient" y1="0.5" x2="1" y2="0.5" gradientUnits="objectBoundingBox">
      <stop offset="0.001"/>
      <stop offset="0.092" stop-opacity="0.796"/>
      <stop offset="1" stop-opacity="0"/>
    </linearGradient>
  </defs>
  <g id="Group_7" data-name="Group 7" transform="translate(-9.921 -9.966)">
    <g id="Group_3" data-name="Group 3" transform="translate(97.319 13.435)">
      <g id="Group_2" data-name="Group 2" transform="translate(0 0)">
        <g id="Group_1" data-name="Group 1">
          <path id="Path_1" data-name="Path 1" d="M233.99,64.475a11.556,11.556,0,0,1-2.272-7.408V20.592a1.789,1.789,0,0,1,.529-1.37,1.877,1.877,0,0,1,1.338-.5,1.723,1.723,0,0,1,1.868,1.868V57.067a8.362,8.362,0,0,0,1.214,4.7A3.642,3.642,0,0,0,239.81,63.6h1.556a1.424,1.424,0,0,1,1.12.5,2.012,2.012,0,0,1,.436,1.37,1.875,1.875,0,0,1-.5,1.338,1.792,1.792,0,0,1-1.369.529H239.81A7.106,7.106,0,0,1,233.99,64.475Z" transform="translate(-231.718 -18.724)" fill="#fff"/>
          <path id="Path_2" data-name="Path 2" d="M266.737,27.759a2.888,2.888,0,0,1-.809-2.085,2.635,2.635,0,0,1,.871-2.117,3.057,3.057,0,0,1,2.054-.747,2.941,2.941,0,0,1,2.023.747,2.685,2.685,0,0,1,.84,2.117,2.87,2.87,0,0,1-2.925,2.925A2.728,2.728,0,0,1,266.737,27.759Zm.778,41.518a1.81,1.81,0,0,1-.529-1.338V37.624a1.788,1.788,0,0,1,.529-1.369,1.874,1.874,0,0,1,1.338-.5,1.723,1.723,0,0,1,1.868,1.867V67.938a1.876,1.876,0,0,1-.5,1.338,1.791,1.791,0,0,1-1.369.529A1.813,1.813,0,0,1,267.516,69.276Z" transform="translate(-252.376 -21.191)" fill="#fff"/>
          <path id="Path_3" data-name="Path 3" d="M292.6,88.07a13.53,13.53,0,0,1-5.665-3.89,1.654,1.654,0,0,1-.436-1.12,1.683,1.683,0,0,1,.809-1.432,1.611,1.611,0,0,1,1.058-.311A1.768,1.768,0,0,1,289.8,82q3.112,3.8,10.021,3.8,4.917,0,7.252-1.743a5.357,5.357,0,0,0,2.334-4.481q0-4.916-9.523-6.287-6.038-.871-9.119-3.3a7.243,7.243,0,0,1-3.081-5.851,8.351,8.351,0,0,1,3.33-7.065,14,14,0,0,1,8.683-2.521q7.843,0,11.889,5.6a1.574,1.574,0,0,1,.373,1.058,1.642,1.642,0,0,1-1,1.431,2.823,2.823,0,0,1-.934.249,1.89,1.89,0,0,1-1.556-.809,10.668,10.668,0,0,0-8.9-4.046,9.975,9.975,0,0,0-6.038,1.65,4.913,4.913,0,0,0-2.241,4.077,4.629,4.629,0,0,0,2.148,3.984q2.147,1.494,7.189,2.241,6.6.933,9.493,3.517a8.087,8.087,0,0,1,2.895,6.255,7.6,7.6,0,0,1-1.836,5.042,11.827,11.827,0,0,1-4.887,3.362,18.266,18.266,0,0,1-6.66,1.182A19.976,19.976,0,0,1,292.6,88.07Z" transform="translate(-264.8 -40.408)" fill="#fff"/>
          <path id="Path_4" data-name="Path 4" d="M375.726,69.764a1.894,1.894,0,0,1,.529,1.4,1.815,1.815,0,0,1-.529,1.338,1.9,1.9,0,0,1-1.4.529h-1.432a11.909,11.909,0,0,1-6.1-1.556,10.973,10.973,0,0,1-4.17-4.264,12.474,12.474,0,0,1-1.494-6.131v-31a1.892,1.892,0,0,1,.529-1.4A1.814,1.814,0,0,1,363,28.153a1.819,1.819,0,0,1,1.93,1.929V40.228h8.216a1.682,1.682,0,1,1,0,3.362h-8.216V61.081a8.017,8.017,0,0,0,2.241,5.882,7.774,7.774,0,0,0,5.789,2.273h1.37A1.893,1.893,0,0,1,375.726,69.764Z" transform="translate(-309.865 -24.418)" fill="#fff"/>
          <path id="Path_5" data-name="Path 5" d="M406.008,27.759a2.887,2.887,0,0,1-.809-2.085,2.635,2.635,0,0,1,.871-2.117,3.055,3.055,0,0,1,2.054-.747,2.94,2.94,0,0,1,2.023.747,2.685,2.685,0,0,1,.841,2.117,2.87,2.87,0,0,1-2.926,2.925A2.727,2.727,0,0,1,406.008,27.759Zm.778,41.518a1.811,1.811,0,0,1-.529-1.338V37.624a1.789,1.789,0,0,1,.529-1.369,1.874,1.874,0,0,1,1.338-.5,1.723,1.723,0,0,1,1.868,1.867V67.938a1.874,1.874,0,0,1-.5,1.338,1.79,1.79,0,0,1-1.369.529A1.813,1.813,0,0,1,406.786,69.276Z" transform="translate(-336.477 -21.191)" fill="#fff"/>
          <path id="Path_6" data-name="Path 6" d="M450.988,56.261a13.5,13.5,0,0,1,5.6,5.447,17.138,17.138,0,0,1,2.023,8.559V87.011a1.868,1.868,0,1,1-3.736,0V70.267q0-5.913-3.33-9.026a12.2,12.2,0,0,0-8.683-3.112,13.917,13.917,0,0,0-6.006,1.276,10.412,10.412,0,0,0-4.264,3.548,8.663,8.663,0,0,0-1.557,5.011V87.011a1.872,1.872,0,0,1-.5,1.338,1.791,1.791,0,0,1-1.37.529,1.809,1.809,0,0,1-1.867-1.867V59.862a1.79,1.79,0,0,1,.529-1.369,1.876,1.876,0,0,1,1.338-.5,1.722,1.722,0,0,1,1.867,1.867v.072a14.794,14.794,0,0,1,5.167-4.077,15.2,15.2,0,0,1,6.66-1.463A17.3,17.3,0,0,1,450.988,56.261Z" transform="translate(-349.826 -40.312)" fill="#fff"/>
          <path id="Path_7" data-name="Path 7" d="M635.16,56.823a16.492,16.492,0,0,1,6.256,6.256,18.453,18.453,0,0,1,0,17.74,16.471,16.471,0,0,1-6.256,6.255,17.64,17.64,0,0,1-8.9,2.272,16.794,16.794,0,0,1-8-1.9,14.476,14.476,0,0,1-5.633-5.2v17.864a1.724,1.724,0,0,1-1.867,1.867,1.871,1.871,0,0,1-1.338-.5,1.787,1.787,0,0,1-.53-1.369V71.607a17.349,17.349,0,0,1,2.366-8.715,16.432,16.432,0,0,1,6.256-6.131,18.494,18.494,0,0,1,17.647.062Zm-1.93,27.232a13.179,13.179,0,0,0,4.917-4.979,14.844,14.844,0,0,0,0-14.192,13.871,13.871,0,0,0-18.859-5.011,13.173,13.173,0,0,0-4.887,5.011,15.083,15.083,0,0,0,0,14.192,12.943,12.943,0,0,0,4.887,4.979,14.364,14.364,0,0,0,13.943,0Z" transform="translate(-459.481 -40.451)" fill="#fff"/>
          <path id="Path_8" data-name="Path 8" d="M752.658,87.074a16.454,16.454,0,0,1-6.256-6.255,18.452,18.452,0,0,1,0-17.74,16.475,16.475,0,0,1,6.256-6.256,18.452,18.452,0,0,1,17.74,0,16.486,16.486,0,0,1,6.256,6.256,18.45,18.45,0,0,1,0,17.74,16.465,16.465,0,0,1-6.256,6.255,18.452,18.452,0,0,1-17.74,0Zm15.873-3.019a12.956,12.956,0,0,0,4.886-4.979,15.083,15.083,0,0,0,0-14.192,13.185,13.185,0,0,0-4.886-5.011,13.67,13.67,0,0,0-18.86,5.011,14.85,14.85,0,0,0,0,14.192,13.162,13.162,0,0,0,4.917,4.979,14.365,14.365,0,0,0,13.943,0Z" transform="translate(-541.146 -40.408)" fill="#fff"/>
        </g>
      </g>
    </g>
    <g id="Group_6" data-name="Group 6" transform="translate(9.921 9.966)">
      <g id="Group_5" data-name="Group 5" transform="translate(0)">
        <path id="Path_9" data-name="Path 9" d="M50.291,111.547a10.893,10.893,0,0,1-12.584,0L19.858,99.475,9.921,106.2l28.084,19a10.377,10.377,0,0,0,11.986,0l28.084-19-9.937-6.722Z" transform="translate(-9.921 -64.11)" fill="#fff"/>
        <g id="Group_4" data-name="Group 4" transform="translate(8.061)">
          <path id="Path_10" data-name="Path 10" d="M51.711,40.427,30.27,25.924l21.441-14.5a7.922,7.922,0,0,1,9.151,0L82.3,25.924l-21.441,14.5A7.922,7.922,0,0,1,51.711,40.427Z" transform="translate(-30.27 -9.966)" fill="#fff"/>
        </g>
        <path id="Path_11" data-name="Path 11" d="M55.1,76.473a9.555,9.555,0,0,1-11.037,0L28.213,65.751l-9.044,6.118L44.234,88.823a9.261,9.261,0,0,0,10.7,0L80,71.868l-9.044-6.118Z" transform="translate(-15.506 -43.706)" fill="#fff"/>
      </g>
      <path id="Path_12" data-name="Path 12" d="M120.432,106.2l-9.937-6.721L92.647,111.547a10.893,10.893,0,0,1-12.584,0l6.2,3.847a19.009,19.009,0,0,0,21.275-.477Z" transform="translate(-52.277 -64.11)" opacity="0.72" fill="url(#linear-gradient)"/>
      <path id="Path_13" data-name="Path 13" d="M117.947,71.868,108.9,65.751,93.052,76.473a9.555,9.555,0,0,1-11.037,0l5.592,3.667a16.052,16.052,0,0,0,18.334-.15Z" transform="translate(-53.456 -43.697)" opacity="0.72" fill="url(#linear-gradient)"/>
    </g>
    <path id="Path_15" data-name="Path 15" d="M546.7,62.985a15.939,15.939,0,0,0-6.163-6.194,17.919,17.919,0,0,0-8.993-2.241,17.721,17.721,0,0,0-8.84,2.241,16.468,16.468,0,0,0-6.286,6.225,17.575,17.575,0,0,0-2.3,8.964,17.91,17.91,0,0,0,2.241,8.994,15.911,15.911,0,0,0,6.194,6.162,18.109,18.109,0,0,0,8.995,2.21,15.9,15.9,0,0,0,8.248-2.116,13.544,13.544,0,0,0,5.383-5.789v2.738a15.285,15.285,0,0,1-1.743,7.314,13.154,13.154,0,0,1-4.792,5.136A12.859,12.859,0,0,1,531.79,98.5l-.264,0a1.747,1.747,0,0,0-1.759,1.743h0a1.747,1.747,0,0,0,1.743,1.743h.28a16.684,16.684,0,0,0,14.876-8.746,18.483,18.483,0,0,0,2.241-9.057V71.98A18.132,18.132,0,0,0,546.7,62.985ZM543.43,79.169a12.573,12.573,0,0,1-4.854,4.918,14.96,14.96,0,0,1-14.13,0,12.564,12.564,0,0,1-4.855-4.918,14.566,14.566,0,0,1-1.743-7.189,14.747,14.747,0,0,1,1.743-7.221,12.509,12.509,0,0,1,4.855-4.949,14.957,14.957,0,0,1,14.13,0,12.518,12.518,0,0,1,4.854,4.949,14.751,14.751,0,0,1,1.743,7.221A14.57,14.57,0,0,1,543.43,79.169Z" transform="translate(-304.782 -27.016)" fill="#fff"/>
    <path id="Path_16" data-name="Path 16" d="M718.114,54.551a12.186,12.186,0,0,0-3.636.561c-3.288.738-6.065,3.437-7.17,4.646a1.617,1.617,0,0,0-.4-.685,1.85,1.85,0,0,0-1.369-.5,1.873,1.873,0,0,0-1.339.5,1.788,1.788,0,0,0-.53,1.369V87.106a1.81,1.81,0,0,0,1.868,1.867,1.789,1.789,0,0,0,1.369-.529,1.872,1.872,0,0,0,.5-1.338V68.183a9.914,9.914,0,0,1,1.369-5.166,9.642,9.642,0,0,1,3.8-3.61,11.621,11.621,0,0,1,7.065-1.182,11.055,11.055,0,0,0,1.463.124,1.881,1.881,0,0,0,1.089-.28,1.938,1.938,0,0,0,.654-1.463Q722.845,54.551,718.114,54.551Z" transform="translate(-419.397 -26.977)" fill="#fff"/>
  </g>
</svg>
